<svg xmlns="http://www.w3.org/2000/svg" viewBox="0 0 64 64" aria-labelledby="title"
aria-describedby="desc" role="img" xmlns:xlink="http://www.w3.org/1999/xlink">
  <title>Gas Station</title>
  <desc>A solid styled icon from Orion Icon Library.</desc>
  <path data-name="layer2"
  d="M60 59h-2V27H24v4h-2a8 8 0 0 0-8 8v14a4 4 0 1 1-8 0V32h7v-5l-7-7v-.2l7.4-7.4a2 2 0 1 0-2.8-2.8l-8 8A2 2 0 0 0 2 19v34a8 8 0 1 0 16 0V39a4 4 0 0 1 4-4h2v24h-2a2 2 0 1 0 0 4h38a2 2 0 0 0 0-4zM40 31h12v18H40z"
  fill="#f03a51"></path>
  <path data-name="layer2" fill="#f03a51" d="M44 35h4v10h-4z"></path>
  <path data-name="layer1" d="M58 5a4 4 0 0 0-4-4H28a4 4 0 0 0-4 4v18h34z"
  fill="#f03a51"></path>
</svg>